<?xml version="1.0" encoding="UTF-8"?>
<!DOCTYPE svg PUBLIC "-//W3C//DTD SVG 1.1//EN" "http://www.w3.org/Graphics/SVG/1.1/DTD/svg11.dtd">
<!-- Creator: CorelDRAW -->
<svg xmlns="http://www.w3.org/2000/svg" xml:space="preserve" width="50px" height="50px" version="1.1" style="shape-rendering:geometricPrecision; text-rendering:geometricPrecision; image-rendering:optimizeQuality; fill-rule:evenodd; clip-rule:evenodd"
viewBox="0 0 50 50"
 xmlns:xlink="http://www.w3.org/1999/xlink"
 xmlns:xodm="http://www.corel.com/coreldraw/odm/2003">
 <defs>
  <style type="text/css">
   <![CDATA[
    .fil1 {fill:black}
    .fil0 {fill:#FEFEFE}
   ]]>
  </style>
 </defs>
 <g id="Camada_x0020_1">
  <metadata id="CorelCorpID_0Corel-Layer"/>
  <g id="_2120771555232">
   <path class="fil0" d="M44 -9c0,-2 3,-2 3,0 0,2 -3,2 -3,0zm-2 0c0,1 1,3 3,3 1,0 1,-1 2,-1l0 1c0,0 2,0 2,0l0 -5c0,-1 -1,0 -1,0 0,0 0,0 0,1 -1,-1 -1,-1 -2,-1 0,0 -1,0 -1,0 -1,1 -2,2 -2,3z"/>
   <path class="fil0" d="M7 -8c-2,0 -2,-3 0,-3 2,0 2,3 0,3zm-3 -1c0,3 3,4 5,2 2,-2 1,-5 -2,-5l-1 0c-2,0 -3,2 -3,3z"/>
   <path class="fil0" d="M12 -9c0,-2 3,-2 3,0 0,1 0,2 -1,2 -1,0 -1,-1 -1,-2zm-2 0c0,1 0,2 1,3 2,2 5,1 5,-2 0,-2 -1,-3 -3,-3l-1 0c-1,0 -3,1 -3,3z"/>
   <path class="fil0" d="M28 -12l0 4c0,1 1,2 2,2 1,0 1,0 2,-1 0,0 0,0 0,0l2 0c0,-1 0,-4 0,-5 0,-1 -1,0 -1,0 -1,0 0,1 0,1 0,0 0,1 0,1 0,1 0,2 -1,2 0,0 -1,0 -1,-1 0,0 0,-1 0,-1 0,-3 0,-3 -1,-3 0,0 0,0 0,0z"/>
   <path class="fil0" d="M20 -10l0 0 0 -1c1,0 2,0 2,1 0,1 0,1 -1,1zm-2 -2l0 5c0,0 1,0 2,0 0,-1 0,-1 0,-1l1 0c1,0 2,-1 2,-2 0,-2 -3,-2 -5,-2 0,0 0,0 0,0z"/>
   <path class="fil0" d="M37 -12c0,2 0,1 2,1l-2 2c-1,1 -1,0 -1,1 0,0 0,0 0,0l4 0c0,0 0,0 0,-1 0,0 -1,0 -1,0 0,0 -1,0 -1,0 0,0 3,-3 3,-3 0,-1 0,-1 0,-1l-4 0c0,0 0,0 0,0z"/>
   <path class="fil0" d="M-2 -10l0 0c0,2 2,4 4,3 2,-1 1,-2 0,-2 0,0 0,1 -2,1 -1,0 -1,-1 -1,-1 0,-1 1,-2 2,-2 1,0 1,1 2,0 -2,-3 -5,-1 -5,2z"/>
   <path class="fil0" d="M23 -12c0,1 0,2 0,4 0,2 2,2 4,2 0,-2 0,-2 -1,-2 -2,0 -1,0 -1,-4 0,0 -1,0 -2,0z"/>
   <path class="fil0" d="M35 -12l0 5c1,0 2,0 2,0l0 -5c0,-1 -1,0 -1,0 0,0 0,0 0,0z"/>
   <path class="fil0" d="M34 -14c0,1 1,1 2,1 1,0 0,-2 -1,-2 0,0 -1,0 -1,1z"/>
  </g>
  <g id="_2120771552832">
   <g id="_2120781313216">
    <path class="fil1" d="M-15 -9c0,-2 3,-2 3,0 0,2 -3,2 -3,0zm-2 0c0,1 1,3 3,3 1,0 1,-1 2,-1l0 1c0,0 2,0 2,0l0 -5c0,-1 -1,0 -1,0 0,0 0,0 0,1 -1,-1 -1,-1 -2,-1 0,0 -1,0 -1,0 -1,1 -2,2 -2,3z"/>
    <path class="fil1" d="M-51 -8c-2,0 -2,-3 0,-3 2,0 2,3 0,3zm-3 -1c0,3 3,4 5,2 2,-2 1,-5 -2,-5l-1 0c-2,0 -3,1 -3,3z"/>
    <path class="fil1" d="M-46 -9c0,-2 3,-2 3,0 0,1 0,2 -1,2 -1,0 -1,-1 -1,-2zm-2 0c0,1 0,2 1,3 2,2 5,1 5,-2 0,-2 -1,-3 -3,-3l-1 0c-1,0 -3,1 -3,3z"/>
    <path class="fil1" d="M-30 -12l0 4c0,1 1,2 2,2 1,0 1,0 2,-1 0,0 0,0 0,0l2 0c0,-1 0,-4 0,-5 0,-1 -1,0 -1,0 -1,0 0,1 0,1 0,0 0,1 0,1 0,1 0,2 -1,2 0,0 -1,0 -1,-1 0,0 0,-1 0,-1 0,-3 0,-3 -1,-3 0,0 0,0 0,0z"/>
    <path class="fil1" d="M-38 -9l0 0 0 -1c1,0 2,0 2,1 0,1 0,1 -1,1zm-2 -2l0 5c0,0 1,0 2,0 0,-1 0,-1 0,-1l1 0c1,0 2,-1 2,-2 0,-2 -3,-2 -5,-2 0,0 0,0 0,0z"/>
    <path class="fil1" d="M-22 -12c0,2 0,1 2,1l-2 2c-1,1 -1,0 -1,1 0,0 0,0 0,0l4 0c0,0 0,0 0,-1 0,0 -1,0 -1,0 0,0 -1,0 -1,0 0,0 3,-3 3,-3 0,-1 0,-1 0,-1l-4 0c0,0 0,0 0,0z"/>
    <path class="fil1" d="M-60 -9l0 0c0,2 2,4 4,3 2,-1 1,-2 0,-2 0,0 0,1 -2,1 -1,0 -1,-1 -1,-1 0,-1 1,-2 2,-2 1,0 1,1 2,0 -2,-3 -5,-1 -5,2z"/>
    <path class="fil1" d="M-35 -12c0,1 0,2 0,4 0,2 2,2 4,2 0,-2 0,-2 -1,-2 -2,0 -1,0 -1,-4 0,0 -1,0 -2,0z"/>
    <path class="fil1" d="M-24 -12l0 5c1,0 2,0 2,0l0 -5c0,-1 -1,0 -1,0 0,0 0,0 0,0z"/>
    <path class="fil1" d="M-24 -14c0,1 1,1 2,1 1,0 0,-2 -1,-2 0,0 -1,0 -1,1z"/>
   </g>
  </g>
 </g>
</svg>
