<?xml version="1.0" encoding="UTF-8"?>
<!DOCTYPE svg PUBLIC "-//W3C//DTD SVG 1.1//EN" "http://www.w3.org/Graphics/SVG/1.1/DTD/svg11.dtd">
<!-- Creator: CorelDRAW -->
<svg xmlns="http://www.w3.org/2000/svg" xml:space="preserve" width="10px" height="10px" version="1.1" style="shape-rendering:geometricPrecision; text-rendering:geometricPrecision; image-rendering:optimizeQuality; fill-rule:evenodd; clip-rule:evenodd"
viewBox="0 0 18000 18000"
 xmlns:xlink="http://www.w3.org/1999/xlink"
 xmlns:xodm="http://www.corel.com/coreldraw/odm/2003">
 <defs>
  <style type="text/css">
   <![CDATA[
    .fil1 {fill:black}
    .fil0 {fill:#FEFEFE}
   ]]>
  </style>
 </defs>
 <g id="Camada_x0020_1">
  <metadata id="CorelCorpID_0Corel-Layer"/>
  <g id="_2120956525104">
   <path class="fil0" d="M15670.96 -3351.55c0,-816.25 1023.06,-792.58 1023.06,35.28 0,623.51 -1023.06,705 -1023.06,-35.28zm-635 0c0,516.71 471.97,1058.33 987.78,1058.33 329.42,0 506.88,-184.46 705.56,-317.5l0 211.67c132.4,30.85 564.44,119.79 564.44,-105.83l0 -1799.17c0,-184.44 -221.11,-141.11 -423.33,-141.11 -151.67,0 -141.11,128.5 -141.11,282.22 -275.57,-184.53 -220.36,-317.5 -776.12,-317.5 -141.88,0 -281.11,56.18 -373.71,120.17 -320.87,221.75 -543.51,572.38 -543.51,1008.72z"/>
   <path class="fil0" d="M2582.91 -2822.38c-794.51,0 -712.08,-1128.89 -35.28,-1128.89 626.06,0 647.84,1128.89 35.28,1128.89zm-1199.45 -529.17c0,916.09 1202.42,1444.8 1897.47,803.85 776.46,-716.02 212.56,-1932.74 -627.47,-1932.74l-211.66 0c-584.4,0 -1058.34,538.02 -1058.34,1128.89z"/>
   <path class="fil0" d="M4417.35 -3386.83c0,-745.59 1023.06,-692.5 1023.06,-105.83 0,292.86 -54.03,670.28 -493.89,670.28 -315.48,0 -529.17,-255.61 -529.17,-564.45zm-599.72 -105.83c0,377.89 49.37,649.85 324.98,909.74 721.59,680.41 1932.8,199.56 1932.8,-803.91 0,-575.48 -485.25,-1093.61 -1058.34,-1093.61l-211.66 0c-469.31,0 -987.78,518.47 -987.78,987.78z"/>
   <path class="fil0" d="M10132.35 -4339.33l0 1305.28c0,406.3 361.76,705.55 846.67,705.55 260.82,0 406.96,-141.48 564.44,-246.94 3.09,138.64 -9.65,82.75 35.28,176.39l564.45 0c78.97,-338.97 35.27,-1480.93 35.27,-1905 0,-191.22 -246.83,-141.11 -493.89,-141.11 -180.06,0 -143.76,209.15 -141.7,387.46 2.03,176.57 -0.2,353.38 0.83,530 1.39,238.64 10.67,670.04 -423.57,670.04 -143.85,0 -273.93,-91.37 -332.64,-196.53 -79.99,-143.29 -56.4,-272.14 -55.53,-473.64 4.53,-1045.54 96.89,-917.33 -493.77,-917.33 -81.29,0 -105.84,24.55 -105.84,105.83z"/>
   <path class="fil0" d="M7169.02 -3422.11l-176.39 0 0 -458.61c261.71,0 564.44,-51.17 564.44,211.67 0,224.37 -169.41,246.94 -388.05,246.94zm-811.39 -881.94l0 1799.17c0,168.34 285.9,105.83 599.72,105.83 57.32,-246.03 35.28,-234.37 35.28,-529.17l529.17 0c357.88,0 670.27,-338.15 670.27,-740.83 0,-841.71 -946.32,-776.11 -1693.33,-776.11 -82.58,0 -141.11,58.53 -141.11,141.11z"/>
   <path class="fil0" d="M13236.8 -4339.33c0,576.43 -132.61,458.61 846.66,458.61l-690.13 897.37c-191.49,253.05 -191.81,137.66 -191.81,513.74 0,81.29 24.55,105.84 105.83,105.84l1552.22 0c150.52,0 105.84,-135.4 105.84,-458.61 0,-160.8 -250.31,-106.98 -423.21,-105.96 -176.33,1.03 -352.93,0.12 -529.29,0.12 88.04,-131.48 917.22,-1011.38 917.22,-1093.61 0,-300.91 41.48,-423.33 -105.83,-423.33l-1481.67 0c-81.29,0 -105.83,24.55 -105.83,105.83z"/>
   <path class="fil0" d="M-768.48 -3457.38l0 176.39c0,704.4 813.43,1319.26 1582.25,947.25 699.46,-338.44 198.29,-672.18 52.17,-647.62 -175.5,29.49 -119.69,194.25 -540.81,194.25 -242.04,0 -493.89,-281.18 -493.89,-529.16 0,-297.93 199.32,-599.72 564.45,-599.72 275.72,0 475.84,461.64 776.11,-105.84 -657.06,-981.21 -1940.28,-207.59 -1940.28,564.45z"/>
   <path class="fil0" d="M8403.74 -4409.88c0,435.58 0.83,871.2 -1.46,1306.73 -4.62,881.29 865.81,704.1 1588.96,704.1 0,-717.43 75.07,-602.41 -493.92,-599.69 -633.6,3.03 -493.86,142.42 -493.86,-1411.14 -176.89,-41.21 -420.88,-69.42 -599.72,0z"/>
   <path class="fil0" d="M12425.41 -4339.33l0 1940.28c401.41,0 599.72,56.89 599.72,-105.83l0 -1799.17c0,-191.22 -246.84,-141.11 -493.89,-141.11 -81.29,0 -105.83,24.55 -105.83,105.83z"/>
   <path class="fil0" d="M12390.13 -4974.33c0,450.16 406.34,406.85 540.72,294.64 202.02,-168.7 155.1,-541.58 -223.22,-541.58 -145.49,0 -317.5,118.58 -317.5,246.94z"/>
  </g>
  <g id="_2120956525152">
   <g id="_2120781313216">
    <path class="fil1" d="M-2502.54 553.72c0,-816.25 1023.06,-792.58 1023.06,35.28 0,623.51 -1023.06,705 -1023.06,-35.28zm-635 0c0,516.71 471.97,1058.33 987.78,1058.33 329.42,0 506.88,-184.46 705.56,-317.5l0 211.67c132.4,30.85 564.44,119.79 564.44,-105.83l0 -1799.17c0,-184.44 -221.11,-141.11 -423.33,-141.11 -151.67,0 -141.11,128.5 -141.11,282.22 -275.57,-184.53 -220.36,-317.5 -776.12,-317.5 -141.88,0 -281.11,56.18 -373.71,120.17 -320.87,221.75 -543.51,572.38 -543.51,1008.72z"/>
    <path class="fil1" d="M-15590.59 1082.89c-794.51,0 -712.08,-1128.89 -35.28,-1128.89 626.06,0 647.84,1128.89 35.28,1128.89zm-1199.45 -529.17c0,916.09 1202.42,1444.8 1897.47,803.85 776.46,-716.02 212.56,-1932.74 -627.47,-1932.74l-211.66 0c-584.4,0 -1058.34,538.02 -1058.34,1128.89z"/>
    <path class="fil1" d="M-13756.15 518.44c0,-745.59 1023.06,-692.5 1023.06,-105.83 0,292.86 -54.03,670.28 -493.89,670.28 -315.48,0 -529.17,-255.61 -529.17,-564.45zm-599.72 -105.83c0,377.89 49.37,649.85 324.98,909.74 721.59,680.41 1932.8,199.56 1932.8,-803.91 0,-575.48 -485.25,-1093.61 -1058.34,-1093.61l-211.66 0c-469.31,0 -987.78,518.47 -987.78,987.78z"/>
    <path class="fil1" d="M-8041.15 -434.06l0 1305.28c0,406.3 361.76,705.55 846.67,705.55 260.82,0 406.96,-141.48 564.44,-246.94 3.09,138.64 -9.65,82.75 35.28,176.39l564.45 0c78.97,-338.97 35.27,-1480.93 35.27,-1905 0,-191.22 -246.83,-141.11 -493.89,-141.11 -180.06,0 -143.76,209.15 -141.7,387.46 2.03,176.57 -0.2,353.38 0.83,530 1.39,238.64 10.67,670.04 -423.57,670.04 -143.85,0 -273.93,-91.37 -332.64,-196.53 -79.99,-143.29 -56.4,-272.14 -55.53,-473.64 4.53,-1045.54 96.89,-917.33 -493.77,-917.33 -81.29,0 -105.84,24.55 -105.84,105.83z"/>
    <path class="fil1" d="M-11004.48 483.16l-176.39 0 0 -458.61c261.71,0 564.44,-51.17 564.44,211.67 0,224.37 -169.41,246.94 -388.05,246.94zm-811.39 -881.94l0 1799.17c0,168.34 285.9,105.83 599.72,105.83 57.32,-246.03 35.28,-234.37 35.28,-529.17l529.17 0c357.88,0 670.27,-338.15 670.27,-740.83 0,-841.71 -946.32,-776.11 -1693.33,-776.11 -82.58,0 -141.11,58.53 -141.11,141.11z"/>
    <path class="fil1" d="M-4936.7 -434.06c0,576.43 -132.61,458.61 846.66,458.61l-690.13 897.37c-191.49,253.05 -191.81,137.66 -191.81,513.74 0,81.29 24.55,105.84 105.83,105.84l1552.22 0c150.52,0 105.84,-135.4 105.84,-458.61 0,-160.8 -250.31,-106.98 -423.21,-105.96 -176.33,1.03 -352.93,0.12 -529.29,0.12 88.04,-131.48 917.22,-1011.38 917.22,-1093.61 0,-300.91 41.48,-423.33 -105.83,-423.33l-1481.67 0c-81.29,0 -105.83,24.55 -105.83,105.83z"/>
    <path class="fil1" d="M-18941.98 447.89l0 176.39c0,704.4 813.43,1319.26 1582.25,947.25 699.46,-338.44 198.29,-672.18 52.17,-647.62 -175.5,29.49 -119.69,194.25 -540.81,194.25 -242.04,0 -493.89,-281.18 -493.89,-529.16 0,-297.93 199.32,-599.72 564.45,-599.72 275.72,0 475.84,461.64 776.11,-105.84 -657.06,-981.21 -1940.28,-207.59 -1940.28,564.45z"/>
    <path class="fil1" d="M-9769.76 -504.61c0,435.58 0.83,871.2 -1.46,1306.73 -4.62,881.29 865.81,704.1 1588.96,704.1 0,-717.43 75.07,-602.41 -493.92,-599.69 -633.6,3.03 -493.86,142.42 -493.86,-1411.14 -176.89,-41.21 -420.88,-69.42 -599.72,0z"/>
    <path class="fil1" d="M-5748.09 -434.06l0 1940.28c401.41,0 599.72,56.89 599.72,-105.83l0 -1799.17c0,-191.22 -246.84,-141.11 -493.89,-141.11 -81.29,0 -105.83,24.55 -105.83,105.83z"/>
    <path class="fil1" d="M-5783.37 -1069.06c0,450.16 406.34,406.85 540.72,294.64 202.02,-168.7 155.1,-541.58 -223.22,-541.58 -145.49,0 -317.5,118.58 -317.5,246.94z"/>
   </g>
  </g>
 </g>
</svg>
